<svg width="201" height="187" viewBox="0 0 201 187" fill="none" xmlns="http://www.w3.org/2000/svg">
<path d="M100.5 0.583313C45.6296 0.583313 0.916672 42.3029 0.916672 93.5C0.916672 144.697 45.6296 186.417 100.5 186.417C155.37 186.417 200.083 144.697 200.083 93.5C200.083 42.3029 155.37 0.583313 100.5 0.583313ZM148.101 72.1291L91.6371 124.813C90.2429 126.114 88.3508 126.857 86.3592 126.857C84.3675 126.857 82.4754 126.114 81.0813 124.813L52.8992 98.5175C50.0113 95.8229 50.0113 91.3629 52.8992 88.6683C55.7871 85.9737 60.5671 85.9737 63.455 88.6683L86.3592 110.039L137.545 62.28C140.433 59.5854 145.213 59.5854 148.101 62.28C150.989 64.9746 150.989 69.3416 148.101 72.1291Z" fill="url(#paint0_linear_25518_5)"/>
<defs>
<linearGradient id="paint0_linear_25518_5" x1="100.5" y1="0.583313" x2="100.5" y2="186.417" gradientUnits="userSpaceOnUse">
<stop stop-color="#903AFF"/>
<stop offset="1" stop-color="#FE34B9"/>
</linearGradient>
</defs>
</svg>
